<svg width="18" height="18" viewBox="0 0 18 18" fill="none" xmlns="http://www.w3.org/2000/svg">
    <path d="M7.616 16.2027C7.75665 16.4452 7.95852 16.6465 8.20142 16.7864C8.44431 16.9263 8.7197 17 9 17C9.2803 17 9.55569 16.9263 9.79858 16.7864C10.0415 16.6465 10.2433 16.4452 10.384 16.2027M0.999999 13.0021L17 13.0021C16.3635 13.0021 15.753 12.7492 15.3029 12.2991C14.8529 11.8489 14.6 11.2383 14.6 10.6017L14.6 6.60099C14.6 5.11552 14.01 3.69088 12.9598 2.64049C11.9096 1.5901 10.4852 0.999999 9 0.999999C7.51479 0.999999 6.09041 1.5901 5.0402 2.64049C3.99 3.69088 3.4 5.11552 3.4 6.60099L3.4 10.6017C3.4 11.2383 3.14714 11.8489 2.69706 12.2991C2.24697 12.7492 1.63652 13.0021 0.999999 13.0021Z"
          stroke="currentColor" stroke-width="1.5" stroke-linecap="round" stroke-linejoin="round"/>
</svg>
