<svg width="12" height="11" viewBox="0 0 12 11" fill="none" xmlns="http://www.w3.org/2000/svg">
<path fill-rule="evenodd" clip-rule="evenodd" d="M4.77886 0.500002C4.78273 0.500003 4.78664 0.500004 4.79058 0.500004L7.22115 0.500002C7.27625 0.499988 7.32418 0.499977 7.36993 0.502747C7.94834 0.537778 8.45485 0.902846 8.67099 1.4405C8.68809 1.48303 8.70324 1.52851 8.72065 1.5808L8.72435 1.59189C8.74754 1.66147 8.75257 1.67587 8.75685 1.6865C8.8289 1.86572 8.99773 1.98741 9.19054 1.99909C9.20184 1.99977 9.21881 2 9.29721 2C9.30667 2 9.31598 2 9.32514 2C9.48257 1.99997 9.59824 1.99994 9.6972 2.00975C10.6458 2.10374 11.3963 2.85418 11.4903 3.80281C11.5001 3.90174 11.5 4.01277 11.5 4.16268C11.5 4.1712 11.5 4.17984 11.5 4.18862V8.12067C11.5 8.52315 11.5 8.85532 11.4779 9.12592C11.4549 9.40697 11.4057 9.66532 11.282 9.90798C11.0903 10.2843 10.7843 10.5903 10.408 10.782C10.1653 10.9057 9.90697 10.9549 9.62592 10.9779C9.35532 11 9.02315 11 8.62067 11H3.37934C2.97687 11 2.64469 11 2.37409 10.9779C2.09305 10.9549 1.83469 10.9057 1.59203 10.782C1.2157 10.5903 0.909741 10.2843 0.717994 9.90798C0.594348 9.66532 0.545066 9.40697 0.522104 9.12592C0.499995 8.85532 0.5 8.52314 0.500007 8.12065L0.500007 4.18862C0.500007 4.17984 0.500005 4.1712 0.500003 4.16268C0.499973 4.01277 0.49995 3.90174 0.509752 3.80281C0.603741 2.85418 1.35419 2.10374 2.30281 2.00975C2.40177 1.99994 2.51744 1.99997 2.67487 2C2.68404 2 2.69334 2 2.7028 2C2.7812 2 2.79817 1.99977 2.80947 1.99909C3.00228 1.98741 3.17112 1.86572 3.24316 1.6865C3.24744 1.67587 3.25247 1.66148 3.27567 1.59189C3.27691 1.58815 3.27815 1.58444 3.27937 1.58077C3.29678 1.5285 3.31193 1.48302 3.32902 1.4405C3.54516 0.902846 4.05167 0.537778 4.63009 0.502747C4.67583 0.499977 4.72377 0.499988 4.77886 0.500002ZM4.79058 1.5C4.71723 1.5 4.70198 1.50023 4.69054 1.50092C4.49773 1.5126 4.3289 1.63428 4.25685 1.8135C4.25257 1.82414 4.24754 1.83853 4.22435 1.90812C4.2231 1.91186 4.22187 1.91557 4.22064 1.91924C4.20323 1.97151 4.18809 2.01698 4.171 2.0595C3.95485 2.59716 3.44834 2.96223 2.86993 2.99726C2.82415 3.00003 2.77397 3.00002 2.71562 3.00001C2.71139 3 2.70712 3 2.7028 3C2.5054 3 2.44422 3.00063 2.40141 3.00488C1.9271 3.05187 1.55187 3.42709 1.50488 3.90141C1.50062 3.94439 1.50001 4.00149 1.50001 4.18862V8.1C1.50001 8.52829 1.5004 8.81944 1.51878 9.04449C1.53669 9.26369 1.56916 9.37579 1.609 9.45399C1.70487 9.64216 1.85785 9.79514 2.04602 9.89101C2.12422 9.93085 2.23632 9.96332 2.45553 9.98123C2.68057 9.99961 2.97172 10 3.40001 10H8.60001C9.0283 10 9.31944 9.99961 9.54449 9.98123C9.76369 9.96332 9.8758 9.93085 9.954 9.89101C10.1422 9.79514 10.2951 9.64216 10.391 9.45399C10.4309 9.37579 10.4633 9.26369 10.4812 9.04449C10.4996 8.81944 10.5 8.52829 10.5 8.1V4.18862C10.5 4.00149 10.4994 3.94439 10.4951 3.90141C10.4481 3.42709 10.0729 3.05187 9.5986 3.00488C9.55579 3.00063 9.49461 3 9.29721 3L9.28439 3.00001C9.22604 3.00002 9.17586 3.00003 9.13009 2.99726C8.55167 2.96223 8.04516 2.59716 7.82902 2.0595C7.81192 2.01698 7.79677 1.97149 7.77936 1.91921L7.77566 1.90812C7.75247 1.83853 7.74744 1.82414 7.74316 1.8135C7.67111 1.63428 7.50228 1.5126 7.30947 1.50092C7.29803 1.50023 7.28279 1.5 7.20944 1.5H4.79058ZM6.00001 4.75C5.17158 4.75 4.50001 5.42158 4.50001 6.25C4.50001 7.07843 5.17158 7.75 6.00001 7.75C6.82843 7.75 7.50001 7.07843 7.50001 6.25C7.50001 5.42158 6.82843 4.75 6.00001 4.75ZM3.50001 6.25C3.50001 4.86929 4.61929 3.75 6.00001 3.75C7.38072 3.75 8.50001 4.86929 8.50001 6.25C8.50001 7.63072 7.38072 8.75 6.00001 8.75C4.61929 8.75 3.50001 7.63072 3.50001 6.25Z" fill="#98A2B3"/>
</svg>
