<svg width="24" height="24" viewBox="0 0 1.08 1.08" xmlns="http://www.w3.org/2000/svg" aria-hidden="true"
     class="iconify iconify--twemoji">
    <path fill="#00247D"
          d="M0 .272V.39h.169zM.14.93h.25V.755zM.69.755V.93h.25zM0 .69v.118L.169.69zM.94.15H.69v.175zm.14.658V.69H.911zm0-.418V.272L.911.39zM.39.15H.14l.25.175z"/>
    <path fill="#CF1B2B"
          d="m.754.69.291.204a.1.1 0 0 0 .03-.052L.859.69zM.39.69H.326L.035.894a.13.13 0 0 0 .058.033L.39.718zm.3-.3h.064l.291-.204A.1.1 0 0 0 .987.153L.69.362zm-.364 0L.034.186a.1.1 0 0 0-.03.052L.221.39z"/>
    <path fill="#EEE"
          d="M1.08.63H.63v.3h.06V.755L.94.93h.02a.12.12 0 0 0 .086-.036L.754.69h.105l.216.152A.1.1 0 0 0 1.08.81V.808L.911.69h.169zM0 .63v.06h.169L0 .808V.81a.12.12 0 0 0 .034.084L.325.69H.39v.028L.093.926.12.929h.02L.39.755V.93h.06v-.3zM1.08.27a.12.12 0 0 0-.034-.084L.754.39H.69V.362L.987.154.96.15H.94L.69.325V.15H.63v.3h.45V.39H.911L1.08.272zM.39.15v.175L.14.15H.12a.12.12 0 0 0-.086.036L.325.39H.221L.005.238A.1.1 0 0 0 0 .27v.002L.169.39H0v.06h.45v-.3z"/>
    <path fill="#CF1B2B" d="M.63.45v-.3H.45v.3H0v.18h.45v.3h.18v-.3h.45V.45z"/>
</svg>