<svg width="20" height="20" viewBox="0 0 20 20" fill="none" xmlns="http://www.w3.org/2000/svg">
<g clip-path="url(#clip0_62_2526)">
<path d="M9.99996 1.66669C12.0844 3.94865 13.2689 6.91005 13.3333 10C13.2689 13.09 12.0844 16.0514 9.99996 18.3334M9.99996 1.66669C7.91556 3.94865 6.731 6.91005 6.66663 10C6.731 13.09 7.91556 16.0514 9.99996 18.3334M9.99996 1.66669C5.39759 1.66669 1.66663 5.39765 1.66663 10C1.66663 14.6024 5.39759 18.3334 9.99996 18.3334M9.99996 1.66669C14.6023 1.66669 18.3333 5.39765 18.3333 10C18.3333 14.6024 14.6023 18.3334 9.99996 18.3334M2.08331 7.50002H17.9166M2.08329 12.5H17.9166" stroke="#0E73F6" stroke-width="1.5" stroke-linecap="round" stroke-linejoin="round"/>
</g>
<defs>
<clipPath id="clip0_62_2526">
<rect width="20" height="20" fill="white"/>
</clipPath>
</defs>
</svg>
