<svg width="20" height="20" viewBox="0 0 20 20" fill="none" xmlns="http://www.w3.org/2000/svg">
<path fill-rule="evenodd" clip-rule="evenodd" d="M4.54667 19.9902C4.10064 19.9743 3.52579 19.9394 3.26451 19.8867C2.86567 19.8061 2.48902 19.684 2.17579 19.5244C1.80777 19.3368 1.47793 19.0975 1.19313 18.8132C0.90767 18.5283 0.667414 18.1981 0.479107 17.8295C0.319907 17.518 0.197861 17.1436 0.116977 16.7471C0.0631801 16.4831 0.0276006 15.904 0.0114717 15.4551C0.00493113 15.2716 0.00157522 15.0342 0.00157522 14.9247L0 5.07693C0 4.96787 0.00332166 4.73035 0.00982801 4.54667C0.025683 4.10067 0.0605775 3.52582 0.113347 3.26454C0.193855 2.86573 0.316003 2.48905 0.475614 2.17582C0.663202 1.80777 0.902465 1.478 1.18683 1.19316C1.47174 0.907735 1.80192 0.667479 2.17045 0.479137C2.48203 0.319972 2.85639 0.197892 3.25293 0.117008C3.51685 0.0632106 4.09602 0.0276311 4.54492 0.0115365C4.72833 0.00496164 4.96582 0.00160574 5.07533 0.00160574L14.9231 3.05176e-05C15.0322 3.05176e-05 15.2697 0.00331794 15.4533 0.00985853C15.8993 0.0257477 16.4742 0.060608 16.7355 0.113378C17.1343 0.19392 17.511 0.316068 17.8242 0.475645C18.1922 0.663233 18.522 0.90253 18.8068 1.18686C19.0923 1.4718 19.3325 1.80191 19.5209 2.17048C19.68 2.48207 19.8021 2.85639 19.883 3.25296C19.9368 3.51688 19.9724 4.09609 19.9885 4.54495C19.9951 4.7284 19.9984 4.96585 19.9984 5.07536L20 14.9231C20 15.0322 19.9967 15.2697 19.9901 15.4534C19.9742 15.8994 19.9394 16.4742 19.8866 16.7355C19.8061 17.1343 19.684 17.511 19.5244 17.8242C19.3368 18.1923 19.0975 18.5221 18.8132 18.8069C18.5282 19.0923 18.198 19.3326 17.8295 19.5209C17.5179 19.6801 17.1436 19.8022 16.747 19.883C16.4831 19.9368 15.9039 19.9724 15.4551 19.9885C15.2716 19.9951 15.0341 19.9984 14.9246 19.9984L5.0769 20C4.9678 20 4.73029 19.9967 4.54667 19.9902Z" fill="url(#paint0_radial_16_744)"/>
<mask id="mask0_16_744" style="mask-type:luminance" maskUnits="userSpaceOnUse" x="0" y="0" width="20" height="20">
<path fill-rule="evenodd" clip-rule="evenodd" d="M4.54667 19.9902C4.10064 19.9743 3.52579 19.9394 3.26451 19.8867C2.86567 19.8061 2.48902 19.684 2.17579 19.5244C1.80777 19.3368 1.47793 19.0975 1.19313 18.8132C0.90767 18.5283 0.667414 18.1981 0.479107 17.8295C0.319907 17.518 0.197861 17.1436 0.116977 16.7471C0.0631801 16.4831 0.0276006 15.904 0.0114717 15.4551C0.00493113 15.2716 0.00157522 15.0342 0.00157522 14.9247L0 5.07693C0 4.96787 0.00332166 4.73035 0.00982801 4.54667C0.025683 4.10067 0.0605775 3.52582 0.113347 3.26454C0.193855 2.86573 0.316003 2.48905 0.475614 2.17582C0.663202 1.80777 0.902465 1.478 1.18683 1.19316C1.47174 0.907735 1.80192 0.667479 2.17045 0.479137C2.48203 0.319972 2.85639 0.197892 3.25293 0.117008C3.51685 0.0632106 4.09602 0.0276311 4.54492 0.0115365C4.72833 0.00496164 4.96582 0.00160574 5.07533 0.00160574L14.9231 3.05176e-05C15.0322 3.05176e-05 15.2697 0.00331794 15.4533 0.00985853C15.8993 0.0257477 16.4742 0.060608 16.7355 0.113378C17.1343 0.19392 17.511 0.316068 17.8242 0.475645C18.1922 0.663233 18.522 0.90253 18.8068 1.18686C19.0923 1.4718 19.3325 1.80191 19.5209 2.17048C19.68 2.48207 19.8021 2.85639 19.883 3.25296C19.9368 3.51688 19.9724 4.09609 19.9885 4.54495C19.9951 4.7284 19.9984 4.96585 19.9984 5.07536L20 14.9231C20 15.0322 19.9967 15.2697 19.9901 15.4534C19.9742 15.8994 19.9394 16.4742 19.8866 16.7355C19.8061 17.1343 19.684 17.511 19.5244 17.8242C19.3368 18.1923 19.0975 18.5221 18.8132 18.8069C18.5282 19.0923 18.198 19.3326 17.8295 19.5209C17.5179 19.6801 17.1436 19.8022 16.747 19.883C16.4831 19.9368 15.9039 19.9724 15.4551 19.9885C15.2716 19.9951 15.0341 19.9984 14.9246 19.9984L5.0769 20C4.9678 20 4.73029 19.9967 4.54667 19.9902Z" fill="white"/>
</mask>
<g mask="url(#mask0_16_744)">
<path fill-rule="evenodd" clip-rule="evenodd" d="M10.0415 2.57266C8.0323 2.57266 7.78015 2.5815 6.99102 2.61761C6.20344 2.65388 5.66585 2.77926 5.19546 2.96324C4.70888 3.15326 4.29613 3.40744 3.88492 3.82111C3.47341 4.23462 3.22064 4.64969 3.03107 5.13884C2.84766 5.61202 2.72281 6.15278 2.68736 6.94447C2.65207 7.73802 2.64282 7.99174 2.64282 10.0122C2.64282 12.0326 2.65176 12.2854 2.68752 13.079C2.72374 13.871 2.84843 14.4116 3.03122 14.8846C3.22033 15.3739 3.4731 15.789 3.88446 16.2025C4.29551 16.6163 4.70826 16.8711 5.19453 17.0611C5.66523 17.2451 6.20298 17.3705 6.99041 17.4068C7.77953 17.4429 8.03153 17.4517 10.0406 17.4517C12.0499 17.4517 12.3013 17.4429 13.0904 17.4068C13.878 17.3705 14.4162 17.2451 14.8869 17.0611C15.3733 16.8711 15.7855 16.6163 16.1965 16.2025C16.608 15.789 16.8608 15.3739 17.0504 14.8848C17.2322 14.4116 17.3571 13.8708 17.3941 13.0791C17.4295 12.2856 17.4388 12.0326 17.4388 10.0122C17.4388 7.99174 17.4295 7.73818 17.3941 6.94463C17.3571 6.15263 17.2322 5.61202 17.0504 5.13899C16.8608 4.64969 16.608 4.23462 16.1965 3.82111C15.785 3.40728 15.3735 3.1531 14.8864 2.96324C14.4148 2.77926 13.8769 2.65388 13.0893 2.61761C12.3002 2.5815 12.049 2.57266 10.0392 2.57266H10.0415ZM9.79462 3.91344H9.79473L10.0413 3.91351C12.0166 3.91351 12.2507 3.92064 13.0307 3.95629C13.752 3.98946 14.1435 4.11066 14.4043 4.21249C14.7495 4.34733 14.9957 4.50852 15.2545 4.7689C15.5134 5.02929 15.6737 5.27727 15.8081 5.62445C15.9093 5.88638 16.03 6.28006 16.0628 7.00541C16.0983 7.78966 16.106 8.02525 16.106 10.0107C16.106 11.9961 16.0983 12.2317 16.0628 13.0159C16.0299 13.7413 15.9093 14.135 15.8081 14.3969C15.674 14.7441 15.5134 14.9913 15.2545 15.2515C14.9955 15.5119 14.7497 15.6731 14.4043 15.8079C14.1438 15.9102 13.752 16.0311 13.0307 16.0643C12.2508 16.0999 12.0166 16.1077 10.0413 16.1077C8.06587 16.1077 7.83175 16.0999 7.05187 16.0643C6.33056 16.0308 5.93908 15.9096 5.67815 15.8078C5.3329 15.6729 5.0863 15.5117 4.82737 15.2514C4.56844 14.991 4.40815 14.7436 4.27375 14.3963C4.17249 14.1343 4.05181 13.7407 4.01898 13.0153C3.98353 12.2311 3.97644 11.9955 3.97644 10.0088C3.97644 8.02215 3.98353 7.7878 4.01898 7.00355C4.05196 6.2782 4.17249 5.88452 4.27375 5.62228C4.40784 5.2751 4.56844 5.02712 4.82737 4.76673C5.0863 4.50635 5.3329 4.34516 5.67815 4.21001C5.93893 4.10771 6.33056 3.98682 7.05187 3.9535C7.73434 3.9225 7.99882 3.9132 9.37763 3.91165V3.91351C9.50641 3.91331 9.64493 3.91337 9.79442 3.91344H9.79452H9.79462ZM13.1027 6.04097C13.1027 5.54794 13.5004 5.14853 13.9905 5.14853V5.14822C14.4806 5.14822 14.8783 5.5481 14.8783 6.04097C14.8783 6.53384 14.4806 6.93371 13.9905 6.93371C13.5004 6.93371 13.1027 6.53384 13.1027 6.04097ZM10.0411 6.19193C7.94307 6.19201 6.24207 7.9026 6.24207 10.0124C6.24207 12.1223 7.94315 13.8322 10.0413 13.8322C12.1394 13.8322 13.8399 12.1223 13.8399 10.0124C13.8399 7.90255 12.1392 6.19193 10.0411 6.19193ZM12.5074 10.0127C12.5074 8.64306 11.4033 7.53287 10.0414 7.53287C8.67938 7.53287 7.57538 8.64306 7.57538 10.0127C7.57538 11.3822 8.67938 12.4926 10.0414 12.4926C11.4033 12.4926 12.5074 11.3822 12.5074 10.0127Z" fill="white"/>
</g>
<defs>
<radialGradient id="paint0_radial_16_744" cx="0" cy="0" r="1" gradientUnits="userSpaceOnUse" gradientTransform="translate(5.31253 21.5404) rotate(-90) scale(19.8214 19.8215)">
<stop stop-color="#FFDD55"/>
<stop offset="0.1" stop-color="#FFDD55"/>
<stop offset="0.5" stop-color="#FF543E"/>
<stop offset="1" stop-color="#C837AB"/>
</radialGradient>
</defs>
</svg>
