<svg width="15" height="15" viewBox="0 0 15 15" fill="none" xmlns="http://www.w3.org/2000/svg">
<path d="M13.1667 8.5H8.16669V13.5C8.16669 14.05 7.71669 14.5 7.16669 14.5C6.61669 14.5 6.16669 14.05 6.16669 13.5V8.5H1.16669C0.616687 8.5 0.166687 8.05 0.166687 7.5C0.166687 6.95 0.616687 6.5 1.16669 6.5H6.16669V1.5C6.16669 0.95 6.61669 0.5 7.16669 0.5C7.71669 0.5 8.16669 0.95 8.16669 1.5V6.5H13.1667C13.7167 6.5 14.1667 6.95 14.1667 7.5C14.1667 8.05 13.7167 8.5 13.1667 8.5Z" fill="#A0A9B6"/>
</svg>
