<svg width="42" height="14" viewBox="0 0 42 14" fill="none" xmlns="http://www.w3.org/2000/svg">
<path d="M0.962891 8.84961V7.50488H9.74512V8.84961H0.962891ZM4.68164 12.6514V3.70312H6.02637V12.6514H4.68164ZM15.6424 0.739746C16.1903 0.739746 16.7298 0.844889 17.2611 1.05518C17.7978 1.26546 18.2821 1.60579 18.7137 2.07617C19.1509 2.54655 19.4995 3.16911 19.7596 3.94385C20.0197 4.71305 20.1497 5.66211 20.1497 6.79102V6.80762C20.1497 8.16895 19.9671 9.33382 19.6019 10.3022C19.2366 11.2651 18.7109 12.0039 18.0247 12.5186C17.3385 13.0277 16.5112 13.2822 15.5428 13.2822C14.8732 13.2822 14.2672 13.1605 13.7249 12.917C13.1881 12.668 12.7399 12.3221 12.3802 11.8794C12.0205 11.4367 11.7715 10.922 11.6331 10.3354L11.6082 10.2275H13.1107L13.1439 10.3188C13.2656 10.6509 13.4372 10.9386 13.6585 11.1821C13.8854 11.4256 14.1566 11.6138 14.472 11.7466C14.793 11.8794 15.1554 11.9458 15.5594 11.9458C16.2843 11.9458 16.8737 11.7355 17.3275 11.3149C17.7812 10.8888 18.1188 10.3244 18.3402 9.62158C18.5615 8.91878 18.686 8.15234 18.7137 7.32227C18.7192 7.24479 18.722 7.17008 18.722 7.09814C18.722 7.02067 18.722 6.94596 18.722 6.87402L18.3651 4.88184C18.3651 4.35612 18.2433 3.88021 17.9998 3.4541C17.7619 3.02799 17.4381 2.69043 17.0286 2.44141C16.6247 2.18685 16.1681 2.05957 15.659 2.05957C15.161 2.05957 14.7072 2.18408 14.2977 2.43311C13.8882 2.6766 13.5617 3.00863 13.3182 3.4292C13.0747 3.84424 12.9529 4.31185 12.9529 4.83203V4.84863C12.9529 5.37988 13.0692 5.85303 13.3016 6.26807C13.534 6.67757 13.8522 7.0013 14.2562 7.23926C14.6601 7.47168 15.1195 7.58789 15.6341 7.58789C16.1543 7.58789 16.6191 7.47168 17.0286 7.23926C17.4381 7.00684 17.7619 6.68864 17.9998 6.28467C18.2433 5.87516 18.3651 5.41032 18.3651 4.89014V4.88184H18.8548V7.04004H18.5643C18.4204 7.36654 18.199 7.6709 17.9002 7.95312C17.6069 8.23535 17.2472 8.46224 16.8211 8.63379C16.4005 8.80534 15.9191 8.89111 15.3768 8.89111C14.6297 8.89111 13.9601 8.7168 13.368 8.36816C12.7759 8.01953 12.3083 7.54362 11.9652 6.94043C11.6221 6.33171 11.4505 5.64551 11.4505 4.88184V4.86523C11.4505 4.06836 11.6304 3.36003 11.9901 2.74023C12.3553 2.11491 12.8533 1.62516 13.4842 1.271C14.1206 0.916829 14.84 0.739746 15.6424 0.739746ZM26.1466 0.739746C26.6945 0.739746 27.234 0.844889 27.7653 1.05518C28.3021 1.26546 28.7863 1.60579 29.2179 2.07617C29.6551 2.54655 30.0037 3.16911 30.2638 3.94385C30.5239 4.71305 30.6539 5.66211 30.6539 6.79102V6.80762C30.6539 8.16895 30.4713 9.33382 30.1061 10.3022C29.7409 11.2651 29.2151 12.0039 28.5289 12.5186C27.8427 13.0277 27.0154 13.2822 26.047 13.2822C25.3774 13.2822 24.7715 13.1605 24.2291 12.917C23.6924 12.668 23.2441 12.3221 22.8844 11.8794C22.5247 11.4367 22.2757 10.922 22.1373 10.3354L22.1124 10.2275H23.6149L23.6481 10.3188C23.7698 10.6509 23.9414 10.9386 24.1627 11.1821C24.3896 11.4256 24.6608 11.6138 24.9762 11.7466C25.2972 11.8794 25.6596 11.9458 26.0636 11.9458C26.7885 11.9458 27.3779 11.7355 27.8317 11.3149C28.2855 10.8888 28.623 10.3244 28.8444 9.62158C29.0657 8.91878 29.1902 8.15234 29.2179 7.32227C29.2234 7.24479 29.2262 7.17008 29.2262 7.09814C29.2262 7.02067 29.2262 6.94596 29.2262 6.87402L28.8693 4.88184C28.8693 4.35612 28.7475 3.88021 28.504 3.4541C28.2661 3.02799 27.9424 2.69043 27.5329 2.44141C27.1289 2.18685 26.6723 2.05957 26.1632 2.05957C25.6652 2.05957 25.2114 2.18408 24.8019 2.43311C24.3924 2.6766 24.0659 3.00863 23.8224 3.4292C23.5789 3.84424 23.4572 4.31185 23.4572 4.83203V4.84863C23.4572 5.37988 23.5734 5.85303 23.8058 6.26807C24.0382 6.67757 24.3564 7.0013 24.7604 7.23926C25.1644 7.47168 25.6237 7.58789 26.1383 7.58789C26.6585 7.58789 27.1233 7.47168 27.5329 7.23926C27.9424 7.00684 28.2661 6.68864 28.504 6.28467C28.7475 5.87516 28.8693 5.41032 28.8693 4.89014V4.88184H29.359V7.04004H29.0685C28.9246 7.36654 28.7033 7.6709 28.4044 7.95312C28.1111 8.23535 27.7514 8.46224 27.3253 8.63379C26.9048 8.80534 26.4233 8.89111 25.881 8.89111C25.1339 8.89111 24.4643 8.7168 23.8722 8.36816C23.2801 8.01953 22.8125 7.54362 22.4694 6.94043C22.1263 6.33171 21.9547 5.64551 21.9547 4.88184V4.86523C21.9547 4.06836 22.1346 3.36003 22.4943 2.74023C22.8595 2.11491 23.3576 1.62516 23.9884 1.271C24.6248 0.916829 25.3442 0.739746 26.1466 0.739746ZM36.8252 13.1992C35.9785 13.1992 35.2286 13.0526 34.5756 12.7593C33.9227 12.466 33.408 12.062 33.0317 11.5474C32.6609 11.0272 32.4755 10.4323 32.4755 9.7627V9.74609C32.4755 9.25358 32.5835 8.79704 32.7993 8.37646C33.0151 7.95589 33.3167 7.59896 33.7041 7.30566C34.0914 7.00684 34.5397 6.79932 35.0488 6.68311V6.6499C34.3958 6.44515 33.8756 6.10758 33.4882 5.63721C33.1009 5.16683 32.9072 4.61621 32.9072 3.98535V3.96875C32.9072 3.36556 33.076 2.82878 33.4135 2.3584C33.7511 1.88249 34.2159 1.50895 34.8081 1.23779C35.4002 0.9611 36.0726 0.822754 36.8252 0.822754C37.5833 0.822754 38.2557 0.9611 38.8422 1.23779C39.4344 1.50895 39.8992 1.88249 40.2368 2.3584C40.5743 2.82878 40.7431 3.36556 40.7431 3.96875V3.98535C40.7431 4.61621 40.5494 5.16683 40.1621 5.63721C39.7802 6.10758 39.2601 6.44515 38.6015 6.6499V6.68311C39.1162 6.79932 39.5644 7.00684 39.9463 7.30566C40.3336 7.59896 40.6352 7.95589 40.851 8.37646C41.0669 8.79704 41.1748 9.25358 41.1748 9.74609V9.7627C41.1748 10.4323 40.9894 11.0272 40.6186 11.5474C40.2478 12.062 39.7332 12.466 39.0747 12.7593C38.4217 13.0526 37.6718 13.1992 36.8252 13.1992ZM36.8252 11.896C37.3785 11.896 37.8655 11.8019 38.2861 11.6138C38.7122 11.4201 39.047 11.1572 39.2905 10.8252C39.534 10.4876 39.6557 10.103 39.6557 9.67139V9.65479C39.6557 9.21761 39.534 8.83024 39.2905 8.49268C39.0525 8.15511 38.7205 7.88949 38.2944 7.6958C37.8683 7.50212 37.3785 7.40527 36.8252 7.40527C36.2718 7.40527 35.782 7.50212 35.3559 7.6958C34.9298 7.88949 34.595 8.15511 34.3515 8.49268C34.1136 8.83024 33.9946 9.21761 33.9946 9.65479V9.67139C33.9946 10.103 34.1163 10.4876 34.3598 10.8252C34.6033 11.1572 34.9381 11.4201 35.3642 11.6138C35.7903 11.8019 36.2773 11.896 36.8252 11.896ZM36.8252 6.09375C37.3066 6.09375 37.7299 6.01074 38.0952 5.84473C38.4604 5.67318 38.7454 5.43799 38.9502 5.13916C39.1549 4.84033 39.2573 4.49723 39.2573 4.10986V4.09326C39.2573 3.70589 39.1549 3.36279 38.9502 3.06396C38.7454 2.76514 38.4604 2.53271 38.0952 2.3667C37.7299 2.19515 37.3066 2.10938 36.8252 2.10938C36.3437 2.10938 35.9204 2.19515 35.5551 2.3667C35.1899 2.53271 34.9049 2.76514 34.7002 3.06396C34.4954 3.36279 34.393 3.70589 34.393 4.09326V4.10986C34.393 4.49723 34.4954 4.84033 34.7002 5.13916C34.9049 5.43799 35.1899 5.67318 35.5551 5.84473C35.9204 6.01074 36.3437 6.09375 36.8252 6.09375Z" fill="#1D2939"/>
</svg>
