<svg width="10" height="10" viewBox="0 0 10 10" fill="none" xmlns="http://www.w3.org/2000/svg">
<path d="M5.33432 5.93434L2.06766 9.20101C1.94543 9.32323 1.78988 9.38435 1.60099 9.38435C1.4121 9.38435 1.25654 9.32323 1.13432 9.20101C1.0121 9.07879 0.950989 8.92323 0.950989 8.73435C0.950989 8.54546 1.0121 8.3899 1.13432 8.26768L4.40099 5.00101L1.13432 1.73434C1.0121 1.61212 0.950989 1.45656 0.950989 1.26768C0.950989 1.07879 1.0121 0.923231 1.13432 0.801009C1.25654 0.678787 1.4121 0.617676 1.60099 0.617676C1.78988 0.617676 1.94543 0.678787 2.06766 0.801009L5.33432 4.06768L8.60099 0.801009C8.72321 0.678787 8.87877 0.617676 9.06766 0.617676C9.25655 0.617676 9.4121 0.678787 9.53432 0.801009C9.65655 0.923231 9.71766 1.07879 9.71766 1.26768C9.71766 1.45656 9.65655 1.61212 9.53432 1.73434L6.26766 5.00101L9.53432 8.26768C9.65655 8.3899 9.71766 8.54546 9.71766 8.73435C9.71766 8.92323 9.65655 9.07879 9.53432 9.20101C9.4121 9.32323 9.25655 9.38435 9.06766 9.38435C8.87877 9.38435 8.72321 9.32323 8.60099 9.20101L5.33432 5.93434Z" fill="white"/>
</svg>
