<svg width="20" height="22" viewBox="0 0 20 22" fill="none" xmlns="http://www.w3.org/2000/svg">
<path d="M6.59 12.5099L13.42 16.4899M13.41 5.50994L6.59 9.48994M19 3.99994C19 5.65679 17.6569 6.99994 16 6.99994C14.3431 6.99994 13 5.65679 13 3.99994C13 2.34308 14.3431 0.999939 16 0.999939C17.6569 0.999939 19 2.34308 19 3.99994ZM7 10.9999C7 12.6568 5.65685 13.9999 4 13.9999C2.34315 13.9999 1 12.6568 1 10.9999C1 9.34308 2.34315 7.99994 4 7.99994C5.65685 7.99994 7 9.34308 7 10.9999ZM19 17.9999C19 19.6568 17.6569 20.9999 16 20.9999C14.3431 20.9999 13 19.6568 13 17.9999C13 16.3431 14.3431 14.9999 16 14.9999C17.6569 14.9999 19 16.3431 19 17.9999Z" stroke="white" stroke-width="1.8" stroke-linecap="round" stroke-linejoin="round"/>
</svg>
