<svg width="18" height="18" viewBox="0 0 18 18" fill="none" xmlns="http://www.w3.org/2000/svg">
<path d="M8.99996 17.7099C13.8102 17.7099 17.7096 13.8104 17.7096 9.0002C17.7096 4.18998 13.8102 0.290527 8.99996 0.290527C4.18974 0.290527 0.290283 4.18998 0.290283 9.0002C0.290283 13.8104 4.18974 17.7099 8.99996 17.7099Z" fill="url(#paint0_linear_16_756)"/>
<path d="M3.34464 9.37133C4.36767 8.81228 5.50964 8.34566 6.57665 7.87667C8.41231 7.1085 10.2553 6.35364 12.1168 5.65088C12.479 5.53114 13.1298 5.41406 13.1936 5.94656C13.1586 6.70033 13.0149 7.44969 12.9163 8.19904C12.6661 9.84695 12.3768 11.4892 12.0948 13.1317C11.9976 13.6788 11.3068 13.962 10.8648 13.6119C9.80253 12.9 8.7321 12.1951 7.68339 11.4667C7.33987 11.1204 7.65842 10.6231 7.96522 10.3758C8.84014 9.52034 9.768 8.79356 10.5972 7.89393C10.8209 7.35807 10.16 7.80967 9.94199 7.94806C8.74422 8.76694 7.57577 9.63583 6.31296 10.3555C5.66791 10.7078 4.9161 10.4068 4.27135 10.2102C3.69325 9.97272 2.84612 9.73347 3.34458 9.3714L3.34464 9.37133Z" fill="white"/>
<defs>
<linearGradient id="paint0_linear_16_756" x1="6.55877" y1="-7.77336" x2="-5.34565" y2="11.4738" gradientUnits="userSpaceOnUse">
<stop stop-color="#34B0DF"/>
<stop offset="1" stop-color="#1E88D3"/>
</linearGradient>
</defs>
</svg>
