<svg width="24px" height="24px" viewBox="0 0 1.08 1.08" xmlns="http://www.w3.org/2000/svg"
     aria-hidden="true" role="img" class="iconify iconify--twemoji"
     preserveAspectRatio="xMidYMid meet">
    <path fill="#0099B5" d="M0 0.27v0.12h1.08v-0.12A0.12 0.12 0 0 0 0.96 0.15H0.12a0.12 0.12 0 0 0 -0.12 0.12"/>
    <path fill="#1EB53A" d="M1.08 0.81v-0.12H0v0.12a0.12 0.12 0 0 0 0.12 0.12H0.96a0.12 0.12 0 0 0 0.12 -0.12"/>
    <path fill="#CE1126" d="M0 0.39h1.08v0.045H0zm0 0.255h1.08v0.045H0z"/>
    <path fill="#EEE" d="M0 0.54v0.105h1.08V0.435H0z"/>
    <path fill="#FFF"
          d="M0.126 0.275A0.094 0.094 0 0 1 0.204 0.183a0.094 0.094 0 1 0 0 0.185 0.094 0.094 0 0 1 -0.078 -0.093m0.141 0.069L0.263 0.331 0.258 0.344H0.245l0.011 0.008 -0.004 0.013 0.011 -0.008 0.011 0.008L0.269 0.352 0.28 0.344zm0.081 0L0.344 0.331 0.339 0.344H0.326l0.011 0.008 -0.004 0.013 0.011 -0.008 0.011 0.008L0.35 0.352 0.361 0.344zM0.344 0.256 0.339 0.269H0.326l0.011 0.008 -0.004 0.013 0.011 -0.008 0.011 0.008L0.35 0.277 0.361 0.269H0.348zm0.085 0.088L0.425 0.331 0.42 0.344H0.407l0.011 0.008 -0.004 0.013 0.011 -0.008 0.011 0.008L0.432 0.352 0.443 0.344zM0.425 0.256 0.42 0.269H0.407l0.011 0.008 -0.004 0.013 0.011 -0.008 0.011 0.008L0.432 0.277 0.443 0.269H0.429zm0 -0.075L0.42 0.194H0.407l0.011 0.008 -0.004 0.013 0.011 -0.008 0.011 0.008L0.432 0.203 0.443 0.194H0.429zm0.085 0.163L0.506 0.331l-0.004 0.013h-0.013l0.011 0.008 -0.004 0.013 0.011 -0.008 0.011 0.008 -0.004 -0.013 0.011 -0.008zM0.506 0.256l-0.004 0.013h-0.013l0.011 0.008 -0.004 0.013 0.011 -0.008 0.011 0.008 -0.004 -0.013 0.011 -0.008h-0.013zm0 -0.075 -0.004 0.013h-0.013l0.011 0.008 -0.004 0.013 0.011 -0.008 0.011 0.008 -0.004 -0.013 0.011 -0.008h-0.013zm0.085 0.163L0.587 0.331l-0.004 0.013h-0.013l0.011 0.008L0.576 0.365l0.011 -0.008 0.011 0.008 -0.004 -0.013 0.011 -0.008zM0.587 0.256l-0.004 0.013h-0.013l0.011 0.008L0.576 0.29l0.011 -0.008 0.011 0.008 -0.004 -0.013 0.011 -0.008h-0.013zm0 -0.075 -0.004 0.013h-0.013l0.011 0.008L0.576 0.216l0.011 -0.008 0.011 0.008 -0.004 -0.013 0.011 -0.008h-0.013z"/>
</svg>