<svg width="20" height="21" viewBox="0 0 20 21" fill="none" xmlns="http://www.w3.org/2000/svg">
<path d="M6.4 15.8125L10 12.2125L13.6 15.8125L15 14.4125L11.4 10.8125L15 7.2125L13.6 5.8125L10 9.4125L6.4 5.8125L5 7.2125L8.6 10.8125L5 14.4125L6.4 15.8125ZM10 20.8125C8.61667 20.8125 7.31667 20.55 6.1 20.025C4.88333 19.5 3.825 18.7875 2.925 17.8875C2.025 16.9875 1.3125 15.9292 0.7875 14.7125C0.2625 13.4958 0 12.1958 0 10.8125C0 9.42917 0.2625 8.12917 0.7875 6.9125C1.3125 5.69583 2.025 4.6375 2.925 3.7375C3.825 2.8375 4.88333 2.125 6.1 1.6C7.31667 1.075 8.61667 0.8125 10 0.8125C11.3833 0.8125 12.6833 1.075 13.9 1.6C15.1167 2.125 16.175 2.8375 17.075 3.7375C17.975 4.6375 18.6875 5.69583 19.2125 6.9125C19.7375 8.12917 20 9.42917 20 10.8125C20 12.1958 19.7375 13.4958 19.2125 14.7125C18.6875 15.9292 17.975 16.9875 17.075 17.8875C16.175 18.7875 15.1167 19.5 13.9 20.025C12.6833 20.55 11.3833 20.8125 10 20.8125ZM10 18.8125C12.2333 18.8125 14.125 18.0375 15.675 16.4875C17.225 14.9375 18 13.0458 18 10.8125C18 8.57917 17.225 6.6875 15.675 5.1375C14.125 3.5875 12.2333 2.8125 10 2.8125C7.76667 2.8125 5.875 3.5875 4.325 5.1375C2.775 6.6875 2 8.57917 2 10.8125C2 13.0458 2.775 14.9375 4.325 16.4875C5.875 18.0375 7.76667 18.8125 10 18.8125Z" fill="#FF3B30"/>
</svg>
