<svg width="245" height="246" viewBox="0 0 245 246" fill="none" xmlns="http://www.w3.org/2000/svg">
<path d="M91.5691 171.453V177.828H153.452V171.453C147.015 171.453 142.261 171.16 139.188 170.574C136.263 169.987 134.434 168.815 133.702 167.055C132.97 165.15 132.605 162.219 132.605 158.262V125.555H112.416V158.262C112.416 162.219 112.05 165.15 111.319 167.055C110.734 168.815 108.979 169.987 106.052 170.574C103.127 171.16 98.2984 171.453 91.5691 171.453Z" fill="#0B1B28"/>
<path d="M112.416 92.2827H132.605V39.9824H144.674C152.574 39.9824 158.5 40.7884 162.449 42.4006C166.399 44.0129 169.252 46.871 171.007 50.9748C172.909 54.9322 174.445 60.7215 175.616 68.343H181.322V32.7273H63.7V68.343H69.4055C70.5758 60.7215 72.0388 54.9322 73.7943 50.9748C75.6962 46.871 78.6221 44.0129 82.572 42.4006C86.6683 40.7884 92.6662 39.9824 100.566 39.9824H112.416V92.2827Z" fill="#0B1B28"/>
<path d="M46.3152 101.75V102.98H42.4199V116.535H39.9675V102.98H36.0242V101.75H46.3152Z" fill="#0B1B28"/>
<path d="M57.0576 116.825C55.0379 116.825 53.5392 116.205 52.5613 114.967C51.5996 113.713 51.1187 111.775 51.1187 109.155C51.1187 106.502 51.5996 104.556 52.5613 103.318C53.5231 102.08 55.0219 101.461 57.0576 101.461C59.1094 101.461 60.6162 102.088 61.578 103.342C62.5397 104.58 63.0207 106.518 63.0207 109.155C63.0207 111.775 62.5317 113.713 61.5539 114.967C60.5922 116.205 59.0934 116.825 57.0576 116.825ZM57.0576 115.787C58.2438 115.787 59.1254 115.249 59.7025 114.172C60.2796 113.078 60.5681 111.405 60.5681 109.155C60.5681 106.872 60.2796 105.191 59.7025 104.114C59.1254 103.021 58.2438 102.474 57.0576 102.474C55.8715 102.474 54.9898 103.013 54.4127 104.09C53.8517 105.167 53.5712 106.855 53.5712 109.155C53.5712 111.438 53.8517 113.118 54.4127 114.195C54.9898 115.256 55.8715 115.787 57.0576 115.787Z" fill="#0B1B28"/>
<path d="M84.1073 111.422L84.0833 111.446V116.535H81.6308V111.422L77.0864 101.75H79.5629L83.3379 110.071L87.2091 101.75H88.6518L84.1073 111.422Z" fill="#0B1B28"/>
<path d="M102.011 116.535L98.0672 110.385L94.0038 116.535H92.5129L97.3939 109.347L92.5129 101.75H95.3259L99.029 107.539L103.021 101.75H104.511L99.7504 108.648L104.824 116.535H102.011Z" fill="#0B1B28"/>
<path d="M115.605 116.825C113.585 116.825 112.086 116.205 111.108 114.967C110.146 113.713 109.666 111.775 109.666 109.155C109.666 106.502 110.146 104.556 111.108 103.318C112.07 102.08 113.569 101.461 115.605 101.461C117.656 101.461 119.163 102.088 120.125 103.342C121.087 104.58 121.568 106.518 121.568 109.155C121.568 111.775 121.079 113.713 120.101 114.967C119.14 116.205 117.641 116.825 115.605 116.825ZM115.605 115.787C116.791 115.787 117.672 115.249 118.25 114.172C118.827 113.078 119.115 111.405 119.115 109.155C119.115 106.872 118.827 105.191 118.25 104.114C117.672 103.021 116.791 102.474 115.605 102.474C114.419 102.474 113.537 103.013 112.96 104.09C112.399 105.167 112.118 106.855 112.118 109.155C112.118 111.438 112.399 113.118 112.96 114.195C113.537 115.256 114.419 115.787 115.605 115.787Z" fill="#0B1B28"/>
<path d="M139.857 116.535H137.188L129.926 104.186V116.535H128.483V101.75H131.105L138.39 114.075V101.75H139.833V116.511L139.857 116.535Z" fill="#0B1B28"/>
<path d="M154.395 112.121H148.528L147.134 116.535H145.74L150.5 101.75H153.433L158.195 116.535H155.814L154.395 112.121ZM154.011 110.939L151.462 102.908L148.913 110.939H154.011Z" fill="#0B1B28"/>
<path d="M171.948 105.778C171.756 103.575 170.819 102.474 169.135 102.474C168.222 102.474 167.516 102.715 167.019 103.197C166.523 103.68 166.178 104.395 165.986 105.344C165.793 106.293 165.697 107.563 165.697 109.155C165.697 110.731 165.793 111.993 165.986 112.941C166.178 113.874 166.523 114.582 167.019 115.064C167.516 115.546 168.222 115.787 169.135 115.787C170.145 115.787 170.867 115.45 171.299 114.775C171.749 114.083 171.989 113.118 172.021 111.88L174.016 111.953C173.888 113.56 173.472 114.775 172.766 115.595C172.061 116.415 170.85 116.825 169.135 116.825C167.629 116.825 166.442 116.535 165.576 115.956C164.712 115.361 164.102 114.509 163.75 113.4C163.413 112.29 163.244 110.875 163.244 109.155C163.244 107.435 163.413 106.019 163.75 104.91C164.102 103.785 164.703 102.932 165.553 102.354C166.418 101.758 167.613 101.461 169.135 101.461C170.754 101.461 171.916 101.798 172.622 102.474C173.327 103.133 173.76 104.114 173.92 105.416L171.948 105.778Z" fill="#0B1B28"/>
<path d="M191.096 101.75V116.535H188.618V109.757H182.776V116.535H180.324V101.75H182.776V108.527H188.618V101.75H191.096Z" fill="#0B1B28"/>
<path d="M201.081 116.535H198.629V101.75H201.081V116.535Z" fill="#0B1B28"/>
<path d="M68.2371 99.6427C68.2371 99.5927 68.2777 99.5518 68.3278 99.5518H69.5982C69.6483 99.5518 69.6889 99.5927 69.6889 99.6427V102.915C69.6889 102.965 69.6483 103.006 69.5982 103.006H68.3278C68.2777 103.006 68.2371 102.965 68.2371 102.915V99.6427Z" fill="#0B1B28"/>
<path d="M87.319 212.995C87.319 212.436 87.1648 211.935 86.8562 211.495C86.5623 211.053 86.1731 210.633 85.6881 210.235C85.218 209.838 84.7111 209.441 84.1675 209.044C83.6239 208.646 83.1097 208.219 82.6248 207.763C82.1546 207.306 81.7652 206.798 81.4567 206.239C81.1629 205.665 81.016 205.017 81.016 204.296H82.4705C82.4705 204.841 82.6175 205.341 82.9113 205.797C83.2198 206.239 83.6092 206.659 84.0793 207.056C84.5642 207.454 85.0785 207.851 85.6221 208.248C86.1657 208.646 86.6726 209.073 87.1427 209.529C87.6276 209.985 88.0169 210.494 88.3108 211.053C88.6193 211.612 88.7736 212.26 88.7736 212.995H87.319ZM81.016 204.34C81.016 203.545 81.1849 202.868 81.5229 202.309C81.8608 201.75 82.3383 201.323 82.9554 201.028C83.5724 200.734 84.285 200.587 85.0932 200.587V201.978C84.2703 201.978 83.6239 202.191 83.1537 202.618C82.6982 203.03 82.4705 203.605 82.4705 204.34H81.016ZM88.7736 212.952C88.7736 213.746 88.6046 214.424 88.2667 214.983C87.9288 215.542 87.4513 215.969 86.8342 216.264C86.2318 216.558 85.5192 216.705 84.6964 216.705V215.314C85.5192 215.314 86.1584 215.108 86.6138 214.695C87.084 214.269 87.319 213.687 87.319 212.952H88.7736ZM87.4072 203.965C87.3337 203.274 87.0767 202.773 86.6358 202.464C86.1951 202.14 85.6808 201.978 85.0932 201.978V200.587C85.7396 200.587 86.3273 200.726 86.8562 201.006C87.3999 201.271 87.8406 201.632 88.1785 202.088C88.5311 202.545 88.7442 203.067 88.8177 203.656L87.4072 203.965ZM81.8314 212.245C81.9343 213.202 82.2355 213.953 82.735 214.497C83.2345 215.042 83.8883 215.314 84.6964 215.314V216.705C83.5357 216.705 82.5807 216.337 81.8314 215.601C81.0967 214.865 80.6487 213.842 80.4871 212.532L81.8314 212.245Z" fill="#0B1B28"/>
<path d="M91.3523 216.374V200.918H92.8069V216.374H91.3523Z" fill="#0B1B28"/>
<path d="M102.39 216.374L96.1969 200.918H97.784L103.954 216.374H102.39ZM95.8884 216.374V200.918H97.343V216.374H95.8884ZM102.808 216.374V200.918H104.263V216.374H102.808Z" fill="#0B1B28"/>
<path d="M106.688 212.753V204.539H108.142V212.753H106.688ZM106.688 204.539C106.688 203.745 106.856 203.053 107.194 202.464C107.532 201.86 108.01 201.396 108.627 201.073C109.244 200.734 109.957 200.565 110.764 200.565V201.955C109.941 201.955 109.295 202.184 108.825 202.64C108.37 203.082 108.142 203.715 108.142 204.539H106.688ZM106.688 212.753H108.142C108.142 213.563 108.37 214.195 108.825 214.652C109.295 215.108 109.941 215.336 110.764 215.336V216.727C109.957 216.727 109.244 216.565 108.627 216.241C108.01 215.903 107.532 215.439 107.194 214.85C106.856 214.246 106.688 213.547 106.688 212.753ZM113.607 205.025C113.505 204.068 113.204 203.317 112.704 202.773C112.205 202.228 111.55 201.955 110.743 201.955V200.565C111.903 200.565 112.851 200.933 113.586 201.669C114.335 202.405 114.791 203.428 114.952 204.738L113.607 205.025ZM113.607 212.267L114.952 212.554C114.791 213.864 114.335 214.887 113.586 215.623C112.851 216.359 111.903 216.727 110.743 216.727V215.336C111.55 215.336 112.205 215.064 112.704 214.519C113.204 213.975 113.505 213.224 113.607 212.267Z" fill="#0B1B28"/>
<path d="M117.51 216.374V214.983H123.77V216.374H117.51ZM117.951 209.419V207.962H122.447V209.419H117.951ZM116.937 200.918H118.391V216.374H116.937V200.918ZM117.731 200.918H123.549V202.309H117.731V200.918Z" fill="#0B1B28"/>
<path d="M130.157 214.916C130.171 213.901 130.318 213.025 130.598 212.289C130.877 211.553 131.237 210.913 131.678 210.368C132.119 209.809 132.581 209.301 133.066 208.845C133.566 208.374 134.029 207.91 134.454 207.454C134.895 206.983 135.256 206.475 135.534 205.93C135.814 205.371 135.953 204.723 135.953 203.987C135.953 203.987 135.997 203.987 136.086 203.987C136.188 203.987 136.314 203.987 136.46 203.987C136.607 203.987 136.754 203.987 136.901 203.987C137.048 203.987 137.166 203.987 137.254 203.987C137.356 203.987 137.408 203.987 137.408 203.987C137.408 204.915 137.268 205.709 136.989 206.372C136.71 207.035 136.35 207.623 135.909 208.138C135.469 208.638 134.998 209.117 134.499 209.574C133.999 210.015 133.529 210.485 133.089 210.986C132.648 211.472 132.28 212.032 131.986 212.665C131.707 213.283 131.561 214.034 131.545 214.916H130.157ZM130.157 216.374V214.916H137.408V216.374H130.157ZM131.347 203.745L129.936 203.435C130.01 202.846 130.216 202.324 130.553 201.867C130.906 201.411 131.355 201.051 131.898 200.785C132.442 200.505 133.03 200.366 133.661 200.366V201.757C133.073 201.757 132.56 201.919 132.119 202.243C131.678 202.552 131.421 203.053 131.347 203.745ZM137.408 204.009H135.953C135.953 203.362 135.733 202.825 135.292 202.397C134.852 201.971 134.3 201.757 133.639 201.757V200.366C134.359 200.366 134.998 200.528 135.557 200.852C136.129 201.161 136.578 201.595 136.901 202.155C137.239 202.699 137.408 203.317 137.408 204.009Z" fill="#0B1B28"/>
<path d="M145.701 212.731V204.561H147.156V212.731H145.701ZM139.619 212.731V204.561H141.074V212.731H139.619ZM143.343 201.978V200.587H143.432V201.978H143.343ZM143.343 216.705V215.314H143.432V216.705H143.343ZM139.619 204.561C139.619 203.795 139.781 203.119 140.104 202.53C140.442 201.926 140.89 201.455 141.448 201.116C142.021 200.764 142.668 200.587 143.388 200.587V201.978C142.668 201.978 142.102 202.206 141.691 202.663C141.279 203.104 141.074 203.737 141.074 204.561H139.619ZM147.156 204.561H145.701C145.701 203.737 145.496 203.104 145.084 202.663C144.688 202.206 144.123 201.978 143.388 201.978V200.587C144.107 200.587 144.747 200.764 145.305 201.116C145.878 201.455 146.326 201.926 146.65 202.53C146.987 203.119 147.156 203.795 147.156 204.561ZM139.619 212.731H141.074C141.074 213.54 141.279 214.174 141.691 214.629C142.102 215.085 142.668 215.314 143.388 215.314V216.705C142.668 216.705 142.021 216.535 141.448 216.197C140.89 215.844 140.442 215.373 140.104 214.784C139.781 214.181 139.619 213.496 139.619 212.731ZM147.156 212.731C147.156 213.496 146.987 214.181 146.65 214.784C146.326 215.373 145.878 215.844 145.305 216.197C144.747 216.535 144.107 216.705 143.388 216.705V215.314C144.123 215.314 144.688 215.085 145.084 214.629C145.496 214.174 145.701 213.54 145.701 212.731H147.156Z" fill="#0B1B28"/>
<path d="M149.981 204.981L149.033 203.987L151.854 200.918V202.927L149.981 204.981ZM151.854 216.374V200.918H153.308V216.374H151.854Z" fill="#0B1B28"/>
<path d="M164.558 212.622C164.558 213.139 164.458 213.625 164.26 214.078C164.067 214.532 163.801 214.929 163.46 215.269C163.119 215.609 162.721 215.878 162.266 216.076C161.811 216.268 161.324 216.364 160.805 216.364H160.155C159.636 216.364 159.146 216.268 158.684 216.076C158.229 215.878 157.831 215.609 157.49 215.269C157.148 214.929 156.878 214.532 156.679 214.078C156.488 213.625 156.392 213.139 156.392 212.622V212.388H157.767V212.622C157.767 212.963 157.831 213.281 157.959 213.579C158.087 213.869 158.261 214.128 158.481 214.355C158.708 214.575 158.968 214.748 159.259 214.875C159.558 215.003 159.878 215.067 160.219 215.067H160.742C161.083 215.067 161.399 215.003 161.69 214.875C161.988 214.748 162.248 214.575 162.469 214.355C162.689 214.128 162.863 213.869 162.991 213.579C163.119 213.281 163.183 212.963 163.183 212.622V209.667C163.183 209.327 163.119 209.012 162.991 208.722C162.863 208.424 162.689 208.165 162.469 207.945C162.248 207.719 161.988 207.542 161.69 207.414C161.399 207.286 161.083 207.223 160.742 207.223H160.219C159.878 207.223 159.558 207.286 159.259 207.414C158.968 207.542 158.708 207.719 158.481 207.945C158.261 208.165 158.087 208.424 157.959 208.722C157.831 209.012 157.767 209.327 157.767 209.667H156.392L157.265 200.909H163.801V202.216H158.556L158.055 206.904C158.382 206.592 158.762 206.351 159.195 206.181C159.629 206.004 160.095 205.915 160.592 205.915H160.805C161.324 205.915 161.811 206.015 162.266 206.213C162.721 206.405 163.119 206.67 163.46 207.01C163.801 207.35 164.067 207.751 164.26 208.211C164.458 208.665 164.558 209.15 164.558 209.667V212.622Z" fill="#0B1B28"/>
</svg>
