<svg id="Layer_1" data-name="Layer 1" xmlns="http://www.w3.org/2000/svg" viewBox="0 0 1000 1000"><path d="M589.92,720.29H408.7q15-1.53,23.64-3.32a65.3,65.3,0,0,0,17.73-6.65,28.14,28.14,0,0,0,13-14.32q3.92-9.45,3.93-24.29V580.64h64.61v91.07q0,14.85,3.94,24.29a28.38,28.38,0,0,0,12.6,14.32A59.86,59.86,0,0,0,565.5,717,243,243,0,0,0,589.92,720.29Z"/><path d="M696.28,403.41a178.41,178.41,0,0,0-3.54-23.24q-2.78-13-11.43-29.94a147.08,147.08,0,0,0-20.88-30.73q-12.21-13.78-34.66-23.25t-50-9.45H563.13q-22.07,0-26.79,12.61t-4.72,55.14V494.88H467V354.55q0-42.54-4.73-55.14T435.5,286.8H422.89q-28.36,0-50.42,9.45T337.8,319.5a129.86,129.86,0,0,0-20.89,30.73q-8.25,16.95-11,29.94a176.88,176.88,0,0,0-3.55,23.24l1.58-123.7H694.71Z"/><path d="M299.94,518.15c-1.65,0-2.65.33-3,1a10.78,10.78,0,0,0-.53,4.26v30.32a8.13,8.13,0,0,0,.44,2.89,3.33,3.33,0,0,0,1.42,1.7,6.25,6.25,0,0,0,1.94.79,23.6,23.6,0,0,0,2.74.4H282.64a24,24,0,0,0,2.65-.4,7,7,0,0,0,2-.79,3.26,3.26,0,0,0,1.46-1.7,8.13,8.13,0,0,0,.44-2.89V523.39a10.78,10.78,0,0,0-.53-4.26c-.35-.65-1.35-1-3-1h-1.41a20.29,20.29,0,0,0-5.66.73,12.22,12.22,0,0,0-3.88,1.8,10.93,10.93,0,0,0-2.34,2.37,8.73,8.73,0,0,0-1.24,2.32,9.65,9.65,0,0,0-.4,1.79l.18-9.56h43.8l.18,9.56a9.65,9.65,0,0,0-.4-1.79,8.2,8.2,0,0,0-1.28-2.32,12.48,12.48,0,0,0-2.34-2.37,11.68,11.68,0,0,0-3.89-1.8,20.26,20.26,0,0,0-5.6-.73Z"/><path d="M331,518.55a25.23,25.23,0,0,1,9.89-1.86,25.54,25.54,0,0,1,9.93,1.86,19,19,0,0,1,7.15,4.93,22.87,22.87,0,0,1,4.2,7,22.11,22.11,0,0,1,0,16,22.87,22.87,0,0,1-4.2,7,19.19,19.19,0,0,1-7.15,5,25.18,25.18,0,0,1-9.93,1.89,24.88,24.88,0,0,1-9.89-1.89,19.73,19.73,0,0,1-7.16-5,21.9,21.9,0,0,1-4.19-7,22.68,22.68,0,0,1,0-16,21.9,21.9,0,0,1,4.19-7A19.56,19.56,0,0,1,331,518.55Zm9.89,41.37a11.62,11.62,0,0,0,7.19-2.38,14.7,14.7,0,0,0,4.73-6.15,35.12,35.12,0,0,0,2.29-8.34,28,28,0,0,0-.08-9.13,36.92,36.92,0,0,0-2.43-8.34,15,15,0,0,0-4.73-6.12,11.48,11.48,0,0,0-13.15-.52,14.23,14.23,0,0,0-4.6,4.84,26.15,26.15,0,0,0-2.73,6.85,33.34,33.34,0,0,0-1,7.86,32.56,32.56,0,0,0,.88,7.88,25.86,25.86,0,0,0,2.65,6.85,14,14,0,0,0,4.6,4.84A11.49,11.49,0,0,0,340.92,559.92Z"/><path d="M369.88,524.06a3.23,3.23,0,0,1,.31-2.53,2.43,2.43,0,0,1,2.25-1.06,2.35,2.35,0,0,1,2.17,1.09,3.15,3.15,0,0,1,.3,2.5l-1.76,7.55a.69.69,0,0,1-.71.42c-.35,0-.56-.14-.62-.42Z"/><path d="M409.35,517.6h15.54a13.35,13.35,0,0,0-6.31,1.8,16.73,16.73,0,0,0-4.64,5.57l-10.33,18.39v8a7.15,7.15,0,0,0,6.45,8.1h-20.4a8.57,8.57,0,0,0,5-2.59,8.44,8.44,0,0,0,1.55-5.51V543.3l-10.07-17.72a24.55,24.55,0,0,0-4.59-6.18,9.66,9.66,0,0,0-5.74-1.8h20.57c-2.65.13-4.25.65-4.81,1.59s-.28,2.27.84,4l10.86,19.55L413.15,525q2.21-3.71,1.5-5.45C414.18,518.36,412.41,517.73,409.35,517.6Z"/><path d="M450.15,559.49q3.89,0,4.77-1.64c.59-1.1.26-2.42-1-4L443.7,540.13l-10.15,13.76q-1.95,2.31-1.06,4t4.86,1.64H420.21a16.72,16.72,0,0,0,7.82-1.61,15.2,15.2,0,0,0,5.43-5.21l9.8-13.21L433,525.58a25.47,25.47,0,0,0-6.14-6.15,14.42,14.42,0,0,0-7.81-1.83h24.28a9.55,9.55,0,0,0-3.53.52,1.87,1.87,0,0,0-1.33,1.55,5.08,5.08,0,0,0,.36,2.23,13,13,0,0,0,1.59,2.83l7.41,10,7.42-10a15.68,15.68,0,0,0,1.64-2.83,4.44,4.44,0,0,0,.35-2.23,2,2,0,0,0-1.37-1.55,9.59,9.59,0,0,0-3.53-.52h17.13a14.46,14.46,0,0,0-7.77,1.83,23.91,23.91,0,0,0-6.1,6.15l-7.33,9.8,12.9,17.29a15.2,15.2,0,0,0,5.43,5.21,16.71,16.71,0,0,0,7.81,1.61Z"/><path d="M480.7,518.55a25.27,25.27,0,0,1,9.89-1.86,25.59,25.59,0,0,1,9.94,1.86,19.1,19.1,0,0,1,7.15,4.93,23.06,23.06,0,0,1,4.2,7,22.11,22.11,0,0,1,0,16,23.06,23.06,0,0,1-4.2,7,19.27,19.27,0,0,1-7.15,5,25.23,25.23,0,0,1-9.94,1.89,24.92,24.92,0,0,1-9.89-1.89,19.69,19.69,0,0,1-7.15-5,21.9,21.9,0,0,1-4.19-7,22.68,22.68,0,0,1,0-16,21.9,21.9,0,0,1,4.19-7A19.52,19.52,0,0,1,480.7,518.55Zm9.89,41.37a11.63,11.63,0,0,0,7.2-2.38,14.7,14.7,0,0,0,4.73-6.15,35.6,35.6,0,0,0,2.29-8.34,28,28,0,0,0-.09-9.13,36.92,36.92,0,0,0-2.43-8.34,15,15,0,0,0-4.72-6.12,11.5,11.5,0,0,0-13.16-.52,14.3,14.3,0,0,0-4.59,4.84,26.16,26.16,0,0,0-2.74,6.85,33.33,33.33,0,0,0-1,7.86,32.07,32.07,0,0,0,.88,7.88,25.53,25.53,0,0,0,2.65,6.85,14.09,14.09,0,0,0,4.59,4.84A11.52,11.52,0,0,0,490.59,559.92Z"/><path d="M546.85,517.6h13.68a6.48,6.48,0,0,0-4.63,2.74,9.93,9.93,0,0,0-1.81,6.09v33.06h-1.15l-30.2-36.22v27.45a9.89,9.89,0,0,0,1.81,6.09,6.25,6.25,0,0,0,4.63,2.68H515.5a6.33,6.33,0,0,0,4.72-2.68,9.89,9.89,0,0,0,1.81-6.09V523.45a8.35,8.35,0,0,0-.44-2.92,3.27,3.27,0,0,0-1.46-1.74,7.18,7.18,0,0,0-2-.79c-.65-.14-1.54-.27-2.65-.4h11.21l26.67,32.45V526.43a9.93,9.93,0,0,0-1.81-6.09A6.56,6.56,0,0,0,546.85,517.6Z"/><path d="M592.06,559.43c2.88-.2,4.8-.82,5.74-1.86s.94-2.61,0-4.72L594,544H573.69l-2.12,5.41a26.64,26.64,0,0,0-1.15,3.51q-.34,1.49-.48,2.52a2.78,2.78,0,0,0,.26,1.74,5.13,5.13,0,0,0,.8,1.09,3,3,0,0,0,1.45.64,13.47,13.47,0,0,0,1.81.31l2.34.18H558.15a31.12,31.12,0,0,0,4.55-.55,8.66,8.66,0,0,0,3.18-1.49,10.22,10.22,0,0,0,2.69-3.08A37,37,0,0,0,571,548.9l12.45-31.3a20.11,20.11,0,0,1,4.68.58,18,18,0,0,0,4.24.58l13.86,34.52c1.12,2.39,2.42,4,3.89,4.69s4,1.21,7.51,1.46ZM574,543.54h19.86l-10.33-24.11Z"/><path d="M638.51,558.76a21.46,21.46,0,0,0,11.12-2.62q4.43-2.61,7.33-9.07a18.31,18.31,0,0,1-7.28,9.83,21.51,21.51,0,0,1-12.23,3.44,31.88,31.88,0,0,1-9.94-1.49,21,21,0,0,1-7.46-4.05,26.57,26.57,0,0,1-5-5.84,16.74,16.74,0,0,1-2.52-6.91,33.42,33.42,0,0,1-.08-7.28,16.19,16.19,0,0,1,2.34-6.94,25,25,0,0,1,4.81-5.81,20.43,20.43,0,0,1,7.2-4,29.86,29.86,0,0,1,9.67-1.49,40.53,40.53,0,0,1,6,.42,22,22,0,0,1,5.17,1.43c1.59.67,2.74,1.18,3.44,1.53s1.77.94,3.18,1.79l-4.5,11.2a11.25,11.25,0,0,0-2.74-11.08,14.12,14.12,0,0,0-10.68-4.56,13.86,13.86,0,0,0-10.29,4.26,18.56,18.56,0,0,0-5.17,10.38,36.27,36.27,0,0,0,.14,12.21,18.11,18.11,0,0,0,5.78,10.38A16.61,16.61,0,0,0,638.51,558.76Z"/><path d="M700.23,553.71a8.13,8.13,0,0,0,.44,2.89,3.33,3.33,0,0,0,1.42,1.7,6.25,6.25,0,0,0,1.94.79,23.61,23.61,0,0,0,2.65.4H686.37a23.6,23.6,0,0,0,2.74-.4,6.46,6.46,0,0,0,1.94-.79,3.26,3.26,0,0,0,1.41-1.7,7.91,7.91,0,0,0,.44-2.89v-16H671.8v16a7.91,7.91,0,0,0,.44,2.89,3.22,3.22,0,0,0,1.46,1.7,6.77,6.77,0,0,0,2,.79,23.61,23.61,0,0,0,2.65.4H658a23.6,23.6,0,0,0,2.74-.4,6.35,6.35,0,0,0,1.94-.79,3.33,3.33,0,0,0,1.42-1.7,8.13,8.13,0,0,0,.44-2.89V523.45a8.3,8.3,0,0,0-.44-3,3.35,3.35,0,0,0-1.42-1.71,6.61,6.61,0,0,0-1.94-.79c-.65-.14-1.56-.27-2.74-.4h20.31c-1.12.13-2,.26-2.65.4a7.06,7.06,0,0,0-2,.79,3.27,3.27,0,0,0-1.46,1.74,8.13,8.13,0,0,0-.44,2.92v13.76h21.1V523.45a8.08,8.08,0,0,0-.44-3,3.29,3.29,0,0,0-1.41-1.71,6.73,6.73,0,0,0-1.94-.79c-.65-.14-1.56-.27-2.74-.4h20.31c-1.12.13-2,.26-2.65.4a6.51,6.51,0,0,0-1.94.79,3.35,3.35,0,0,0-1.42,1.71,8.3,8.3,0,0,0-.44,3Z"/><path d="M722.75,553.71a8.13,8.13,0,0,0,.44,2.89,3.26,3.26,0,0,0,1.46,1.7,6.93,6.93,0,0,0,2,.79,23.24,23.24,0,0,0,2.65.4H709a23.6,23.6,0,0,0,2.74-.4,6.4,6.4,0,0,0,1.95-.79,3.36,3.36,0,0,0,1.41-1.7,8.13,8.13,0,0,0,.44-2.89V523.45a8.3,8.3,0,0,0-.44-3,3.38,3.38,0,0,0-1.41-1.71,6.67,6.67,0,0,0-1.95-.79c-.65-.14-1.56-.27-2.74-.4h20.32c-1.12.13-2,.26-2.65.4a7.24,7.24,0,0,0-2,.79,3.31,3.31,0,0,0-1.46,1.74,8.35,8.35,0,0,0-.44,2.92Z"/></svg>